<?xml version="1.0" encoding="UTF-8" standalone="no"?>
<svg
   xmlns:dc="http://purl.org/dc/elements/1.1/"
   xmlns:cc="http://creativecommons.org/ns#"
   xmlns:rdf="http://www.w3.org/1999/02/22-rdf-syntax-ns#"
   xmlns:svg="http://www.w3.org/2000/svg"
   xmlns="http://www.w3.org/2000/svg"
   xmlns:sodipodi="http://sodipodi.sourceforge.net/DTD/sodipodi-0.dtd"
   xmlns:inkscape="http://www.inkscape.org/namespaces/inkscape"
   width="12pt"
   height="12pt"
   viewBox="0 0 12 12"
   version="1.1"
   id="svg9"
   sodipodi:docname="Earth.svg"
   inkscape:version="0.92.5 (2060ec1f9f, 2020-04-08)">
  <metadata
     id="metadata15">
    <rdf:RDF>
      <cc:Work
         rdf:about="">
        <dc:format>image/svg+xml</dc:format>
        <dc:type
           rdf:resource="http://purl.org/dc/dcmitype/StillImage" />
      </cc:Work>
    </rdf:RDF>
  </metadata>
  <defs
     id="defs13" />
  <sodipodi:namedview
     pagecolor="#ffffff"
     bordercolor="#666666"
     borderopacity="1"
     objecttolerance="10"
     gridtolerance="10"
     guidetolerance="10"
     inkscape:pageopacity="0"
     inkscape:pageshadow="2"
     inkscape:window-width="1920"
     inkscape:window-height="1015"
     id="namedview11"
     showgrid="false"
     inkscape:zoom="59"
     inkscape:cx="8.8481131"
     inkscape:cy="8.6056436"
     inkscape:window-x="0"
     inkscape:window-y="0"
     inkscape:window-maximized="1"
     inkscape:current-layer="svg9"
     inkscape:snap-midpoints="true"
     inkscape:snap-smooth-nodes="true"
     inkscape:snap-intersection-paths="true" />
  <path
     id="path2"
     d="M 11,6 C 11,4.6191406 10.44043,3.3691406 9.5356446,2.4643554 8.6308594,1.5595703 7.3808594,1 6,1 4.6191406,1 3.3691406,1.5595703 2.4643554,2.4643554 1.5595703,3.3691406 1,4.6191406 1,6 1,7.3808594 1.5595703,8.6308594 2.4643554,9.5356445 3.3691406,10.44043 4.6191406,11 6,11 7.3808594,11 8.6308594,10.44043 9.5356446,9.5356445 10.44043,8.6308594 11,7.3808594 11,6 Z"
     style="fill:none;stroke:none;stroke-width:0.3;stroke-linecap:round;stroke-linejoin:round;stroke-miterlimit:5.71428585;stroke-opacity:1;stroke-dasharray:none"
     inkscape:connector-curvature="0"
     sodipodi:nodetypes="sssssssss" />
  <path
     style="fill:none;stroke:none;stroke-width:0.4;stroke-linecap:round;stroke-linejoin:round;stroke-miterlimit:5.71428585;stroke-dasharray:none;stroke-opacity:1"
     d="M 8 1.3339844 L 6.6308594 4.6386719 L 6.6191406 4.6660156 L 3.2851562 3.2851562 L 4.6679688 6.6191406 L 1.3339844 8 L 4.6660156 9.3808594 L 4.6621094 9.390625 L 3.2851562 12.714844 L 6.6191406 11.333984 L 6.6289062 11.355469 L 8 14.666016 L 9.3769531 11.341797 L 9.3808594 11.333984 L 12.714844 12.714844 L 11.333984 9.3808594 L 11.341797 9.3769531 L 14.666016 8 L 11.333984 6.6191406 L 12.714844 3.2851562 L 9.3808594 4.6679688 L 8 1.3339844 z "
     transform="scale(0.75)"
     id="path4770" />
  <path
     style="fill:none;stroke:none;stroke-width:0.3;stroke-linecap:round;stroke-linejoin:round;stroke-miterlimit:5.71428585;stroke-dasharray:none;stroke-opacity:1"
     d="M 3.5009766,4.9643554 4.5503862,4.5503858 4.9643554,3.4995117"
     id="path4789"
     inkscape:connector-curvature="0"
     sodipodi:nodetypes="ccc" />
  <path
     style="fill:none;stroke:none;stroke-width:0.3;stroke-linecap:round;stroke-linejoin:round;stroke-miterlimit:5.71428585;stroke-dasharray:none;stroke-opacity:1"
     d="M 3.4995117,7.0356446 4.5503862,7.4496143 4.9716797,8.5166018"
     id="path4791"
     inkscape:connector-curvature="0"
     sodipodi:nodetypes="ccc" />
  <path
     style="fill:none;stroke:none;stroke-width:0.3;stroke-linecap:round;stroke-linejoin:round;stroke-miterlimit:5.71428585;stroke-dasharray:none;stroke-opacity:1"
     d="M 7.0327148,8.5063478 7.4496142,7.4496143 8.5063478,7.0327148"
     id="path4793"
     inkscape:connector-curvature="0"
     sodipodi:nodetypes="ccc" />
  <path
     style="fill:none;stroke:none;stroke-width:0.3;stroke-linecap:round;stroke-linejoin:round;stroke-miterlimit:5.71428585;stroke-dasharray:none;stroke-opacity:1"
     d="M 8.500488,4.9643554 7.4496142,4.5503858 7.0356446,3.5009766"
     id="path4795"
     inkscape:connector-curvature="0"
     sodipodi:nodetypes="ccc" />
  <path
     id="path2-2"
     d="m 8.0500002,6.0000001 c 0,-0.5661524 -0.229424,-1.0786523 -0.600386,-1.4496143 -0.370962,-0.3709619 -0.883462,-0.6003857 -1.449614,-0.6003857 -0.566153,0 -1.078652,0.2294238 -1.449614,0.6003857 -0.370962,0.370962 -0.600386,0.8834619 -0.600386,1.4496143 0,0.5661523 0.229424,1.0786523 0.600386,1.4496142 0.370962,0.3709621 0.883461,0.6003858 1.449614,0.6003858 0.566152,0 1.078652,-0.2294237 1.449614,-0.6003858 0.370962,-0.3709619 0.600386,-0.8834619 0.600386,-1.4496142 z"
     style="fill:none;stroke:none;stroke-width:0.3;stroke-linecap:round;stroke-linejoin:round;stroke-miterlimit:5.71428585;stroke-dasharray:none;stroke-opacity:1"
     inkscape:connector-curvature="0"
     sodipodi:nodetypes="sssssssss" />
</svg>
